<svg xmlns="http://www.w3.org/2000/svg" xmlns:xlink="http://www.w3.org/1999/xlink" version="1.1" x="0px" y="0px" viewBox="0 0 100 125" style="enable-background:new 0 0 100 100;" xml:space="preserve"><style type="text/css">
	.st0{fill-rule:evenodd;clip-rule:evenodd;}
</style><path class="st0" d="M50,90c-8.4,0-16.1-2.6-22.5-6.9c26.9-7.5,48.1-28.7,55.6-55.6C87.4,33.9,90,41.6,90,50C90,72.1,72.1,90,50,90z   M23.5,79.9c-2.9-2.6-5.5-5.7-7.6-9C42.5,63.4,63.4,42.5,70.9,16c3.4,2.1,6.4,4.6,9,7.6C73.4,51.4,51.4,73.4,23.5,79.9z M14,67.3  c-2.5-5.2-4-11.1-4-17.3c0-22.1,17.9-40,40-40c6.2,0,12.1,1.5,17.3,4C60.3,39.9,39.9,60.3,14,67.3z"/><text x="0" y="115" fill="#000000" font-size="5px" font-weight="bold" font-family="'Helvetica Neue', Helvetica, Arial-Unicode, Arial, Sans-serif">Created by Rohith M S</text><text x="0" y="120" fill="#000000" font-size="5px" font-weight="bold" font-family="'Helvetica Neue', Helvetica, Arial-Unicode, Arial, Sans-serif">from the Noun Project</text></svg>