<svg xmlns:dc="http://purl.org/dc/elements/1.1/" xmlns:cc="http://creativecommons.org/ns#" xmlns:rdf="http://www.w3.org/1999/02/22-rdf-syntax-ns#" xmlns:svg="http://www.w3.org/2000/svg" xmlns="http://www.w3.org/2000/svg" xmlns:sodipodi="http://sodipodi.sourceforge.net/DTD/sodipodi-0.dtd" xmlns:inkscape="http://www.inkscape.org/namespaces/inkscape" version="1.1" x="0px" y="0px" viewBox="0 0 100 125"><g transform="translate(0,-952.36218)"><path style="" d="m 48.73826,957.36216 c -0.60191,0 -1.08647,0.48456 -1.08647,1.08646 l 0,2.13054 c 0,0.30981 0.12881,0.58807 0.33549,0.78563 l 0,26.48585 c -0.0944,0.72751 -0.67812,1.28983 -1.412,1.35302 l 0.002,0.024 c -1.69792,0.25808 -2.81699,0.70272 -2.81699,1.21071 l 0,55.47673 c 0,0.8018 2.78293,1.4471 6.23971,1.4471 3.45678,0 6.23971,-0.6453 6.23971,-1.4471 l 0,-55.47673 c 0,-0.51482 -1.15061,-0.96423 -2.88704,-1.22066 l 10e-4,-0.014 c -0.62758,-0.054 -1.14478,-0.47336 -1.34084,-1.04849 l 0,-26.79038 c 0.20668,-0.19756 0.33548,-0.47582 0.33548,-0.78563 l 0,-2.13054 c 0,-0.6019 -0.48455,-1.08646 -1.08646,-1.08646 l -2.5239,0 z m 1.26932,34.12466 c 2.26583,0 4.09001,0.18938 4.09001,0.42471 -0.002,4.43747 0,14.85697 0,14.85697 0,0 -2.89244,7.0971 -4.09738,8.8071 -1.37667,-3.0095 -2.84494,-6.0047 -4.08226,-9.067 l 0,-14.59707 c 0,-0.23533 1.82381,-0.42471 4.08963,-0.42471 z" fill="#000000" fill-opacity="1" stroke="none"/></g><text x="0" y="115" fill="#000000" font-size="5px" font-weight="bold" font-family="'Helvetica Neue', Helvetica, Arial-Unicode, Arial, Sans-serif">Created by anbileru adaleru</text><text x="0" y="120" fill="#000000" font-size="5px" font-weight="bold" font-family="'Helvetica Neue', Helvetica, Arial-Unicode, Arial, Sans-serif">from the Noun Project</text></svg>