<svg xmlns:dc="http://purl.org/dc/elements/1.1/" xmlns:cc="http://creativecommons.org/ns#" xmlns:rdf="http://www.w3.org/1999/02/22-rdf-syntax-ns#" xmlns:svg="http://www.w3.org/2000/svg" xmlns="http://www.w3.org/2000/svg" xmlns:sodipodi="http://sodipodi.sourceforge.net/DTD/sodipodi-0.dtd" xmlns:inkscape="http://www.inkscape.org/namespaces/inkscape" version="1.1" x="0px" y="0px" viewBox="0 0 100 125"><g transform="translate(0,-952.36218)"><path style="text-indent:0;text-transform:none;direction:ltr;block-progression:tb;baseline-shift:baseline;color:#000000;enable-background:accumulate;" d="m 50.0122,983.80064 c -1.4263,0 -2.8657,0.47751 -4.0312,1.5 -1.1653,1.02253 -1.9375,2.63381 -1.9375,4.4375 l 0,1 C 24.4074,993.55206 9.1256996,1010.0391 8.0747996,1030.2382 a 2.2156194,2.2214455 0 0 0 -1.7188,3.4375 l 5.1250004,7.6875 a 2.2156194,2.2214455 0 0 0 1.875,1 l 73.343798,0 a 2.2156194,2.2214455 0 0 0 1.8437,-1 l 5.0937,-7.6875 a 2.2156194,2.2214455 0 0 0 -1.5937,-3.4375 C 90.991498,1010.0273 75.6614,993.5381 55.981,990.73814 l 0,-1 c 0,-1.80369 -0.7413,-3.41497 -1.9062,-4.4375 -1.1656,-1.02249 -2.6359,-1.5 -4.0626,-1.5 z m 0,4.4375 c 0.4574,0 0.8776,0.18915 1.125,0.40625 0.2475,0.2171 0.4376,0.41829 0.4376,1.09375 l 0,0.625 c -0.5218,-0.0192 -1.0362,-0.0312 -1.5626,-0.0312 -0.5171,0 -1.0497,0.0126 -1.5624,0.0312 l 0,-0.625 c 0,-0.67546 0.1901,-0.87665 0.4374,-1.09375 0.2476,-0.2171 0.6677,-0.40625 1.125,-0.40625 z m -0.062,9.125 a 2.2164585,2.2222868 0 0 1 0.3124,0 2.2156194,2.2214455 0 0 1 0.4376,0.0312 c 0.3835,0.0592 0.9257,0.12049 1.5624,0.21875 a 2.2156194,2.2214455 0 1 1 -0.6562,4.37501 c -0.3837,-0.059 -0.957,-0.089 -1.5938,-0.1875 a 2.2164585,2.2222868 0 0 1 -0.062,-4.43751 z m 8.5312,1.78125 a 2.2156194,2.2214455 0 0 1 0.031,0 2.2156194,2.2214455 0 0 1 0.094,0 2.2156194,2.2214455 0 0 1 0.875,0.125 c 11.4658,4.02771 19.584398,13.45401 22.562498,24.09381 a 2.2156194,2.2214455 0 1 1 -4.25,1.1875 C 75.1984,1015.2781 68.0554,1006.9848 58.0126,1003.4569 a 2.2156194,2.2214455 0 0 1 0.4688,-4.31251 z m -46.125,35.53131 75.312498,0 -2.125,3.25 -70.999998,0 -2.1875,-3.25 z" fill="#000000" fill-opacity="1" fill-rule="evenodd" stroke="none" marker="none" visibility="visible" display="inline" overflow="visible"/><path style="text-indent:0;text-transform:none;direction:ltr;block-progression:tb;baseline-shift:baseline;color:#000000;enable-background:accumulate;" d="m 49.972984,962.36131 a 2.2156194,2.2214455 0 0 0 -2.182004,2.25294 l 0,10.23162 a 2.2156194,2.2214455 0 1 0 4.430233,0 l 0,-10.23162 a 2.2156194,2.2214455 0 0 0 -2.248229,-2.25294 z" fill="#000000" fill-opacity="1" fill-rule="evenodd" stroke="none" marker="none" visibility="visible" display="inline" overflow="visible"/><path style="text-indent:0;text-transform:none;direction:ltr;block-progression:tb;baseline-shift:baseline;color:#000000;enable-background:accumulate;" d="m 24.353103,973.9002 a 2.2156194,2.2214455 0 0 0 -1.543004,3.81472 l 9.851527,9.87743 a 2.2156194,2.2214455 0 1 0 3.132603,-3.14082 l -9.851563,-9.87743 a 2.2156194,2.2214455 0 0 0 -1.589563,-0.6739 z" fill="#000000" fill-opacity="1" fill-rule="evenodd" stroke="none" marker="none" visibility="visible" display="inline" overflow="visible"/><path style="text-indent:0;text-transform:none;direction:ltr;block-progression:tb;baseline-shift:baseline;color:#000000;enable-background:accumulate;" d="m 75.635598,973.9014 a 2.2156194,2.2214455 0 0 0 -1.524331,0.66902 l -9.890822,9.87743 a 2.2156194,2.2214455 0 1 0 3.126437,3.14819 l 9.890645,-9.87743 a 2.2156194,2.2214455 0 0 0 -1.601929,-3.81721 z" fill="#000000" fill-opacity="1" fill-rule="evenodd" stroke="none" marker="none" visibility="visible" display="inline" overflow="visible"/></g><text x="0" y="115" fill="#000000" font-size="5px" font-weight="bold" font-family="'Helvetica Neue', Helvetica, Arial-Unicode, Arial, Sans-serif">Created by Danishicon</text><text x="0" y="120" fill="#000000" font-size="5px" font-weight="bold" font-family="'Helvetica Neue', Helvetica, Arial-Unicode, Arial, Sans-serif">from the Noun Project</text></svg>