<svg xmlns:dc="http://purl.org/dc/elements/1.1/" xmlns:cc="http://creativecommons.org/ns#" xmlns:rdf="http://www.w3.org/1999/02/22-rdf-syntax-ns#" xmlns:svg="http://www.w3.org/2000/svg" xmlns="http://www.w3.org/2000/svg" xmlns:sodipodi="http://sodipodi.sourceforge.net/DTD/sodipodi-0.dtd" xmlns:inkscape="http://www.inkscape.org/namespaces/inkscape" viewBox="0 0 100 125" version="1.1" x="0px" y="0px"><g transform="translate(0,-952.36216)"><path style="opacity:1;fill:#000000" d="M 49.982422 7.1347656 C 49.298793 7.1447656 48.752108 7.706925 48.761719 8.390625 L 48.761719 17.0625 C 43.885557 17.6757 40.091797 21.852725 40.091797 26.890625 C 40.091797 32.348225 44.542414 36.798828 50 36.798828 C 55.457585 36.798828 59.908203 32.348225 59.908203 26.890625 C 59.908203 21.852725 56.114393 17.6757 51.238281 17.0625 L 51.238281 8.390625 C 51.248181 7.692525 50.680467 7.1244656 49.982422 7.1347656 z M 34.353516 16.183594 C 33.0521 16.133594 32.565891 17.869206 33.703125 18.503906 L 37.871094 20.910156 C 39.310089 21.769356 40.573041 19.582125 39.109375 18.765625 L 34.941406 16.359375 C 34.763303 16.253075 34.560799 16.191594 34.353516 16.183594 z M 65.734375 16.183594 C 65.497515 16.173594 65.262112 16.238185 65.058594 16.359375 L 60.890625 18.765625 C 59.426958 19.582125 60.689912 21.769356 62.128906 20.910156 L 66.298828 18.503906 C 67.394744 17.891606 66.989123 16.224194 65.734375 16.183594 z M 50 19.916016 C 50.161408 20.116316 50.337951 20.357653 50.537109 20.689453 C 50.871418 21.246653 51.219913 21.995569 51.488281 22.980469 C 51.01045 22.995469 50.531684 23.011719 50 23.011719 C 49.46792 23.011719 48.989848 22.995369 48.511719 22.980469 C 48.780087 21.995569 49.128533 21.246653 49.462891 20.689453 C 49.662248 20.357353 49.838444 20.116416 50 19.916016 z M 53.035156 20.105469 C 54.252252 20.648069 55.291445 21.506878 56.054688 22.580078 C 55.484609 22.672078 54.796451 22.759884 53.992188 22.833984 C 53.739573 21.755784 53.404788 20.847069 53.035156 20.105469 z M 46.964844 20.107422 C 46.595361 20.848922 46.260327 21.756084 46.007812 22.833984 C 45.204639 22.759984 44.514947 22.672378 43.945312 22.580078 C 44.708258 21.507878 45.74864 20.649822 46.964844 20.107422 z M 42.849609 24.884766 C 43.5752 25.022466 44.500584 25.162191 45.632812 25.275391 C 45.591192 25.788591 45.5625 26.319825 45.5625 26.890625 C 45.5625 27.359225 45.579182 27.804675 45.607422 28.234375 C 44.244822 28.092275 43.255372 27.913678 42.625 27.767578 C 42.59131 27.479378 42.568359 27.188225 42.568359 26.890625 C 42.568359 26.193825 42.6721 25.523266 42.849609 24.884766 z M 57.152344 24.884766 C 57.329605 25.522966 57.431641 26.194125 57.431641 26.890625 C 57.431641 27.188125 57.410843 27.479378 57.376953 27.767578 C 56.74673 27.913778 55.756466 28.092175 54.392578 28.234375 C 54.420818 27.804675 54.4375 27.359225 54.4375 26.890625 C 54.4375 26.319725 54.408607 25.788691 54.367188 25.275391 C 55.500408 25.162091 56.426456 25.022566 57.152344 24.884766 z M 48.101562 25.447266 C 48.70191 25.471266 49.326725 25.488281 50 25.488281 C 50.672928 25.488281 51.298433 25.471266 51.898438 25.447266 C 51.935097 25.900166 51.960938 26.373525 51.960938 26.890625 C 51.960938 27.439225 51.931555 27.937363 51.890625 28.414062 C 51.30177 28.437063 50.675603 28.451172 50 28.451172 C 49.32405 28.451172 48.698477 28.437063 48.109375 28.414062 C 48.068255 27.937362 48.039063 27.439225 48.039062 26.890625 C 48.039062 26.373525 48.064952 25.900166 48.101562 25.447266 z M 31.787109 25.652344 C 30.112246 25.628344 30.112246 28.152606 31.787109 28.128906 L 36.601562 28.128906 C 38.276474 28.152906 38.276476 25.628644 36.601562 25.652344 L 31.787109 25.652344 z M 63.400391 25.652344 C 61.725478 25.628344 61.725478 28.152606 63.400391 28.128906 L 68.212891 28.128906 C 69.887804 28.152906 69.887804 25.628644 68.212891 25.652344 L 63.400391 25.652344 z M 43.460938 30.433594 C 44.157049 30.549194 44.983276 30.663153 45.960938 30.751953 C 46.217118 31.916453 46.57151 32.887928 46.962891 33.673828 C 45.468311 33.006928 44.235127 31.864894 43.460938 30.433594 z M 56.539062 30.435547 C 55.764623 31.866947 54.531937 33.007228 53.037109 33.673828 C 53.428589 32.887928 53.782783 31.916753 54.039062 30.751953 C 55.017069 30.662953 55.842652 30.551147 56.539062 30.435547 z M 48.542969 30.896484 C 49.017134 30.910484 49.482832 30.929688 50 30.929688 C 50.516772 30.929688 50.983162 30.911484 51.457031 30.896484 C 51.192675 31.831684 50.859875 32.553897 50.537109 33.091797 C 50.337951 33.423697 50.161308 33.665034 50 33.865234 C 49.838444 33.664934 49.662248 33.423997 49.462891 33.091797 C 49.140125 32.553897 48.807324 31.831684 48.542969 30.896484 z M 38.544922 32.695312 C 38.308062 32.685313 38.074613 32.748011 37.871094 32.869141 L 33.703125 35.277344 C 32.239459 36.093944 33.502412 38.281175 34.941406 37.421875 L 39.109375 35.015625 C 40.205292 34.403425 39.79962 32.735913 38.544922 32.695312 z M 61.542969 32.695312 C 60.241553 32.645313 59.75339 34.381025 60.890625 35.015625 L 65.058594 37.421875 C 66.497588 38.281175 67.762494 36.093944 66.298828 35.277344 L 62.128906 32.869141 C 61.950803 32.762841 61.750253 32.703212 61.542969 32.695312 z M 53.177734 43.318359 C 52.312834 43.317859 51.595673 43.986909 51.533203 44.849609 C 51.365703 46.785609 51.052889 48.314625 50.855469 49.703125 C 50.658039 51.091625 50.53312 52.444969 51.125 53.792969 C 51.71693 55.140969 52.945247 56.128441 54.654297 56.931641 C 55.441317 57.301441 56.375345 57.652866 57.453125 58.009766 C 55.523915 63.903466 57.127582 67.851091 58.669922 71.837891 C 59.017312 72.747991 59.037109 72.905919 59.037109 73.824219 L 59.037109 79.966797 L 50.722656 88.576172 C 49.819556 89.510872 49.840224 90.988672 50.771484 91.888672 C 51.706184 92.792172 53.196169 92.759972 54.099609 91.826172 L 61.5 84.160156 L 61.509766 84.150391 C 63.728496 81.853291 63.728516 81.844203 63.728516 77.845703 L 63.728516 75.203125 C 63.728516 72.257325 63.72848 72.256837 64.78125 72.148438 C 65.83401 72.040037 65.834503 72.040659 66.757812 74.568359 L 68.960938 80.601562 L 68.960938 90.509766 C 68.960938 91.809666 69.998848 92.863281 71.298828 92.863281 C 72.593808 92.863281 73.652344 91.809666 73.652344 90.509766 L 73.652344 83.943359 C 73.652344 79.751259 73.65195 79.717197 72.34375 76.154297 C 72.33575 76.131297 72.328712 76.115797 72.320312 76.091797 L 70.648438 71.529297 C 69.112638 67.936597 66.296084 64.64535 67.021484 60.53125 L 67.681641 60.664062 C 70.268871 61.120262 72.129316 61.078666 73.785156 60.259766 C 75.122436 59.598366 76.04168 58.464278 76.8125 57.142578 C 77.58332 55.820878 78.274411 54.242103 79.207031 52.283203 C 80.190591 50.284803 77.159766 48.841934 76.228516 50.865234 C 75.275186 52.867634 74.580191 54.424022 73.962891 55.482422 C 73.345651 56.540822 72.875096 57.031188 72.322266 57.304688 C 71.216576 57.851487 68.635672 57.665359 62.794922 56.130859 C 59.582532 55.286859 57.402001 54.579466 56.056641 53.947266 C 54.711281 53.314966 54.316051 52.85935 54.144531 52.46875 C 53.972571 52.07815 53.944571 51.396769 54.119141 50.167969 C 54.293781 48.939269 54.633619 47.270466 54.818359 45.134766 C 54.916159 44.164566 54.154677 43.321813 53.179688 43.320312 L 53.177734 43.318359 z M 27.15625 46.804688 A 1.6489196 1.6489196 0 0 0 26.265625 47.058594 C 23.832975 48.540444 22.274212 49.664247 21.326172 50.998047 C 20.852202 51.664947 20.509011 52.497584 20.619141 53.396484 C 20.729321 54.295384 21.279291 55.018247 21.869141 55.498047 C 23.049181 56.457547 24.568592 56.940106 26.544922 57.503906 C 27.373162 57.740206 28.295764 57.976703 29.271484 58.220703 L 22.998047 75.439453 L 22.560547 76.638672 C 21.458437 79.765072 21.455887 79.783659 21.429688 82.880859 L 21.429688 90.505859 C 21.429688 91.805859 22.48627 92.859375 23.78125 92.859375 C 25.08123 92.859375 26.119191 91.805859 26.119141 90.505859 L 26.119141 80.597656 L 29.025391 72.609375 L 29.035156 72.583984 C 29.631546 70.944684 29.63894 70.937884 30.4375 71.146484 L 30.447266 71.15625 C 31.350806 71.39235 31.353516 71.399413 31.353516 73.257812 L 31.353516 77.949219 C 31.353516 81.860719 31.352515 81.859316 33.640625 84.228516 L 40.982422 91.830078 C 41.885922 92.764878 43.375847 92.796078 44.310547 91.892578 C 45.241697 90.992578 45.260202 89.514778 44.357422 88.580078 L 36.042969 79.972656 L 36.042969 72.648438 C 36.222659 70.624838 37.860103 64.721672 39.195312 60.888672 C 39.466003 60.971672 39.782632 61.070084 40.039062 61.146484 C 41.802903 61.672484 43.166654 62.14675 44.714844 61.84375 C 45.488934 61.69225 46.344423 61.164703 46.789062 60.408203 C 47.233692 59.651703 47.333783 58.837031 47.320312 57.957031 C 47.293613 56.197131 46.774556 53.963481 45.822266 50.675781 A 1.6489196 1.6489196 0 1 0 42.65625 51.59375 C 43.58046 54.78455 44.006937 56.927212 44.023438 58.007812 C 44.029438 58.433313 43.980691 58.520431 43.962891 58.582031 C 43.710671 58.602031 42.598732 58.468328 40.982422 57.986328 C 39.301512 57.485028 37.111081 56.755775 34.488281 56.109375 C 31.703431 55.422975 29.298215 54.864291 27.453125 54.337891 C 25.626915 53.816891 24.344466 53.247878 23.972656 52.955078 C 23.977656 52.955078 23.982925 52.955109 24.015625 52.912109 C 24.378615 52.401409 25.694732 51.272506 27.982422 49.878906 A 1.6489196 1.6489196 0 0 0 27.158203 46.810547 L 27.15625 46.806641 L 27.15625 46.804688 z M 35.113281 46.867188 C 32.791701 46.867188 30.902344 48.739675 30.902344 51.046875 C 30.902344 53.368375 32.791701 55.244141 35.113281 55.244141 C 37.419851 55.244141 39.292469 53.368375 39.292969 51.046875 C 39.292969 48.739675 37.420451 46.867188 35.113281 46.867188 z M 64.300781 47.023438 C 61.979201 47.023438 60.105469 48.895925 60.105469 51.203125 C 60.105469 53.524725 61.979201 55.398438 64.300781 55.398438 C 66.607351 55.398438 68.496094 53.524725 68.496094 51.203125 C 68.496094 48.895925 66.607951 47.023438 64.300781 47.023438 z " transform="translate(0,952.36216)"/></g><text x="0" y="115" fill="#000000" font-size="5px" font-weight="bold" font-family="'Helvetica Neue', Helvetica, Arial-Unicode, Arial, Sans-serif">Created by Andrew Doane</text><text x="0" y="120" fill="#000000" font-size="5px" font-weight="bold" font-family="'Helvetica Neue', Helvetica, Arial-Unicode, Arial, Sans-serif">from the Noun Project</text></svg>